<svg width="50" height="50" viewBox="0 0 50 50" fill="none" xmlns="http://www.w3.org/2000/svg">
<path d="M40.625 0H9.375C4.19733 0 0 4.19733 0 9.375V40.625C0 45.8027 4.19733 50 9.375 50H40.625C45.8027 50 50 45.8027 50 40.625V9.375C50 4.19733 45.8027 0 40.625 0Z" fill="white"/>
<path d="M25 5C18 5 13 10 13 17V19C10 20 9 23 9 25C9 27 10 30 13 31V33C13 40 18 45 25 45C32 45 37 40 37 33V31C40 30 41 27 41 25C41 23 40 20 37 19V17C37 10 32 5 25 5Z" stroke="black" stroke-width="3"/>
<path d="M19 21.5C20.3807 21.5 21.5 20.3807 21.5 19C21.5 17.6193 20.3807 16.5 19 16.5C17.6193 16.5 16.5 17.6193 16.5 19C16.5 20.3807 17.6193 21.5 19 21.5Z" fill="black"/>
<path d="M31 21.5C32.3807 21.5 33.5 20.3807 33.5 19C33.5 17.6193 32.3807 16.5 31 16.5C29.6193 16.5 28.5 17.6193 28.5 19C28.5 20.3807 29.6193 21.5 31 21.5Z" fill="black"/>
<path d="M25 27.5C26.3807 27.5 27.5 26.3807 27.5 25C27.5 23.6193 26.3807 22.5 25 22.5C23.6193 22.5 22.5 23.6193 22.5 25C22.5 26.3807 23.6193 27.5 25 27.5Z" fill="black"/>
<path d="M19 33.5C20.3807 33.5 21.5 32.3807 21.5 31C21.5 29.6193 20.3807 28.5 19 28.5C17.6193 28.5 16.5 29.6193 16.5 31C16.5 32.3807 17.6193 33.5 19 33.5Z" fill="black"/>
<path d="M31 33.5C32.3807 33.5 33.5 32.3807 33.5 31C33.5 29.6193 32.3807 28.5 31 28.5C29.6193 28.5 28.5 29.6193 28.5 31C28.5 32.3807 29.6193 33.5 31 33.5Z" fill="black"/>
<path d="M19 19L25 25" stroke="black" stroke-width="1.5"/>
<path d="M31 19L25 25" stroke="black" stroke-width="1.5"/>
<path d="M19 31L25 25" stroke="black" stroke-width="1.5"/>
<path d="M31 31L25 25" stroke="black" stroke-width="1.5"/>
</svg>
